<svg id="Layer_1" data-name="Layer 1" xmlns="http://www.w3.org/2000/svg" viewBox="0 0 24 24"><defs><style>.cls-1{fill:#fff;}</style></defs><title>Artboard 1</title><path class="cls-1" d="M12,5.44h3.23a4.43,4.43,0,0,1,1.49.28,2.64,2.64,0,0,1,1.52,1.52,4.43,4.43,0,0,1,.28,1.49v6.46a4.43,4.43,0,0,1-.28,1.49,2.65,2.65,0,0,1-1.52,1.52,4.43,4.43,0,0,1-1.49.28H8.77a4.43,4.43,0,0,1-1.49-.28,2.64,2.64,0,0,1-1.52-1.52,4.43,4.43,0,0,1-.28-1.49V8.73a4.43,4.43,0,0,1,.28-1.49A2.64,2.64,0,0,1,7.28,5.76a4.43,4.43,0,0,1,1.49-.28H12M12,4H8.7a5.87,5.87,0,0,0-1.94.37A4.09,4.09,0,0,0,4.42,6.76,5.87,5.87,0,0,0,4,8.7v6.6a5.87,5.87,0,0,0,.37,1.94,4.09,4.09,0,0,0,2.34,2.34,5.86,5.86,0,0,0,2,.42h6.6a5.85,5.85,0,0,0,1.94-.37,4.09,4.09,0,0,0,2.34-2.34,5.86,5.86,0,0,0,.42-2V8.7a5.85,5.85,0,0,0-.37-1.94,4.09,4.09,0,0,0-2.34-2.34,5.87,5.87,0,0,0-2-.42Z"/><path class="cls-1" d="M12,7.89A4.11,4.11,0,1,0,16.11,12h0A4.11,4.11,0,0,0,12,7.89Zm0,6.78A2.67,2.67,0,1,1,14.67,12h0A2.67,2.67,0,0,1,12,14.67Z"/><circle class="cls-1" cx="16.27" cy="7.73" r="0.96"/></svg>