<svg id="Layer_1" data-name="Layer 1" xmlns="http://www.w3.org/2000/svg" viewBox="0 0 155.23 155.23"><defs><style>.cls-1{fill:#333;}</style></defs><title>disconnected</title><path class="cls-1" d="M72.44,93.15A24.27,24.27,0,0,1,61,90.26L26.77,72a24.39,24.39,0,1,1,23-43L84,47.23a5,5,0,0,1-4.71,8.82L45,37.78A14.39,14.39,0,0,0,31.48,63.16L65.69,81.44a14.39,14.39,0,0,0,19.47-5.91A5,5,0,1,1,94,80.24,24.23,24.23,0,0,1,79.55,92.09,24.48,24.48,0,0,1,72.44,93.15Z"/><path class="cls-1" d="M105.08,141.66a24.46,24.46,0,0,1-21.54-12.91L65.26,94.54a24.39,24.39,0,0,1,10-33A5,5,0,0,1,80,70.36a14.39,14.39,0,0,0-5.91,19.47L92.36,124a14.39,14.39,0,0,0,25.39-13.56L99.47,76.27a5,5,0,1,1,8.82-4.71l18.28,34.21a24.41,24.41,0,0,1-21.48,35.9Z"/><path class="cls-1" d="M96.91,49.46a2.5,2.5,0,0,1-2.43-3.1l7-28.37a2.5,2.5,0,1,1,4.86,1.19l-7,28.37A2.5,2.5,0,0,1,96.91,49.46Z"/><path class="cls-1" d="M108,60.54a2.5,2.5,0,0,1-.59-4.93l28.37-7A2.5,2.5,0,0,1,137,53.51l-28.37,7A2.52,2.52,0,0,1,108,60.54Z"/></svg>