<svg id="Layer_1" data-name="Layer 1" xmlns="http://www.w3.org/2000/svg" viewBox="0 0 155.23 155.23"><defs><style>.cls-1{fill:#333;}</style></defs><title>projectedIdentity</title><path class="cls-1" d="M77.62,24.24a26.69,26.69,0,0,0,0,53.38m0,13.34C59.8,91,24.24,99.9,24.24,117.65V131H77.62"/><path class="cls-1" d="M77.62,36.92a14,14,0,1,1-14,14,14,14,0,0,1,14-14m0,60c19.82,0,40.7,9.74,40.7,14v7.34H36.92V111c0-4.27,20.88-14,40.7-14m0-72.73a26.69,26.69,0,1,0,26.69,26.69A26.68,26.68,0,0,0,77.62,24.24Zm0,60c-17.81,0-53.38,8.94-53.38,26.69v20H131V111C131,93.23,95.43,84.29,77.62,84.29Z"/></svg>