<?xml version="1.0" encoding="utf-8"?>
<!-- Generator: Adobe Illustrator 21.1.0, SVG Export Plug-In . SVG Version: 6.00 Build 0)  -->
<svg version="1.1" id="Layer_1" xmlns="http://www.w3.org/2000/svg" xmlns:xlink="http://www.w3.org/1999/xlink" x="0px" y="0px"
	 viewBox="0 0 248 248" style="enable-background:new 0 0 248 248;" xml:space="preserve">
<style type="text/css">
	.st0{fill:#FFFFFF;}
	.st1{fill:#333333;}
</style>
<title>QR Code</title>
<desc>http://andrewtralongo.com/i-share-therefore-i-am.html</desc>
<rect class="st0" width="248" height="248"/>
<g id="elements">
	<path class="st1" d="M16.1,16.1h7.4v7.4h-7.4V16.1z M23.6,16.1H31v7.4h-7.4V16.1z M31,16.1h7.4v7.4H31V16.1z M38.5,16.1h7.4v7.4
		h-7.4V16.1z M45.9,16.1h7.4v7.4h-7.4V16.1z M53.3,16.1h7.4v7.4h-7.4V16.1z M60.8,16.1h7.4v7.4h-7.4V16.1z M83.1,16.1h7.4v7.4h-7.4
		V16.1z M90.5,16.1H98v7.4h-7.4V16.1z M98,16.1h7.4v7.4H98V16.1z M135.2,16.1h7.4v7.4h-7.4V16.1z M150,16.1h7.4v7.4H150V16.1z
		 M157.5,16.1h7.4v7.4h-7.4V16.1z M164.9,16.1h7.4v7.4h-7.4V16.1z M179.8,16.1h7.4v7.4h-7.4V16.1z M187.2,16.1h7.4v7.4h-7.4V16.1z
		 M194.7,16.1h7.4v7.4h-7.4V16.1z M202.1,16.1h7.4v7.4h-7.4V16.1z M209.5,16.1h7.4v7.4h-7.4V16.1z M217,16.1h7.4v7.4H217V16.1z
		 M224.4,16.1h7.4v7.4h-7.4V16.1z M16.1,23.6h7.4V31h-7.4V23.6z M60.8,23.6h7.4V31h-7.4V23.6z M75.6,23.6h7.4V31h-7.4V23.6z
		 M83.1,23.6h7.4V31h-7.4V23.6z M90.5,23.6H98V31h-7.4V23.6z M105.4,23.6h7.4V31h-7.4V23.6z M120.3,23.6h7.4V31h-7.4V23.6z
		 M127.7,23.6h7.4V31h-7.4V23.6z M142.6,23.6h7.4V31h-7.4V23.6z M150,23.6h7.4V31H150V23.6z M179.8,23.6h7.4V31h-7.4V23.6z
		 M224.4,23.6h7.4V31h-7.4V23.6z M16.1,31h7.4v7.4h-7.4V31z M31,31h7.4v7.4H31V31z M38.5,31h7.4v7.4h-7.4V31z M45.9,31h7.4v7.4h-7.4
		V31z M60.8,31h7.4v7.4h-7.4V31z M83.1,31h7.4v7.4h-7.4V31z M105.4,31h7.4v7.4h-7.4V31z M120.3,31h7.4v7.4h-7.4V31z M127.7,31h7.4
		v7.4h-7.4V31z M157.5,31h7.4v7.4h-7.4V31z M164.9,31h7.4v7.4h-7.4V31z M179.8,31h7.4v7.4h-7.4V31z M194.7,31h7.4v7.4h-7.4V31z
		 M202.1,31h7.4v7.4h-7.4V31z M209.5,31h7.4v7.4h-7.4V31z M224.4,31h7.4v7.4h-7.4V31z M16.1,38.5h7.4v7.4h-7.4V38.5z M31,38.5h7.4
		v7.4H31V38.5z M38.5,38.5h7.4v7.4h-7.4V38.5z M45.9,38.5h7.4v7.4h-7.4V38.5z M60.8,38.5h7.4v7.4h-7.4V38.5z M75.6,38.5h7.4v7.4
		h-7.4V38.5z M90.5,38.5H98v7.4h-7.4V38.5z M98,38.5h7.4v7.4H98V38.5z M105.4,38.5h7.4v7.4h-7.4V38.5z M112.8,38.5h7.4v7.4h-7.4
		V38.5z M120.3,38.5h7.4v7.4h-7.4V38.5z M142.6,38.5h7.4v7.4h-7.4V38.5z M157.5,38.5h7.4v7.4h-7.4V38.5z M179.8,38.5h7.4v7.4h-7.4
		V38.5z M194.7,38.5h7.4v7.4h-7.4V38.5z M202.1,38.5h7.4v7.4h-7.4V38.5z M209.5,38.5h7.4v7.4h-7.4V38.5z M224.4,38.5h7.4v7.4h-7.4
		V38.5z M16.1,45.9h7.4v7.4h-7.4V45.9z M31,45.9h7.4v7.4H31V45.9z M38.5,45.9h7.4v7.4h-7.4V45.9z M45.9,45.9h7.4v7.4h-7.4V45.9z
		 M60.8,45.9h7.4v7.4h-7.4V45.9z M98,45.9h7.4v7.4H98V45.9z M120.3,45.9h7.4v7.4h-7.4V45.9z M135.2,45.9h7.4v7.4h-7.4V45.9z
		 M142.6,45.9h7.4v7.4h-7.4V45.9z M150,45.9h7.4v7.4H150V45.9z M157.5,45.9h7.4v7.4h-7.4V45.9z M179.8,45.9h7.4v7.4h-7.4V45.9z
		 M194.7,45.9h7.4v7.4h-7.4V45.9z M202.1,45.9h7.4v7.4h-7.4V45.9z M209.5,45.9h7.4v7.4h-7.4V45.9z M224.4,45.9h7.4v7.4h-7.4V45.9z
		 M16.1,53.3h7.4v7.4h-7.4V53.3z M60.8,53.3h7.4v7.4h-7.4V53.3z M75.6,53.3h7.4v7.4h-7.4V53.3z M83.1,53.3h7.4v7.4h-7.4V53.3z
		 M90.5,53.3H98v7.4h-7.4V53.3z M105.4,53.3h7.4v7.4h-7.4V53.3z M112.8,53.3h7.4v7.4h-7.4V53.3z M127.7,53.3h7.4v7.4h-7.4V53.3z
		 M142.6,53.3h7.4v7.4h-7.4V53.3z M164.9,53.3h7.4v7.4h-7.4V53.3z M179.8,53.3h7.4v7.4h-7.4V53.3z M224.4,53.3h7.4v7.4h-7.4V53.3z
		 M16.1,60.8h7.4v7.4h-7.4V60.8z M23.6,60.8H31v7.4h-7.4V60.8z M31,60.8h7.4v7.4H31V60.8z M38.5,60.8h7.4v7.4h-7.4V60.8z M45.9,60.8
		h7.4v7.4h-7.4V60.8z M53.3,60.8h7.4v7.4h-7.4V60.8z M60.8,60.8h7.4v7.4h-7.4V60.8z M75.6,60.8h7.4v7.4h-7.4V60.8z M90.5,60.8H98
		v7.4h-7.4V60.8z M105.4,60.8h7.4v7.4h-7.4V60.8z M120.3,60.8h7.4v7.4h-7.4V60.8z M135.2,60.8h7.4v7.4h-7.4V60.8z M150,60.8h7.4v7.4
		H150V60.8z M164.9,60.8h7.4v7.4h-7.4V60.8z M179.8,60.8h7.4v7.4h-7.4V60.8z M187.2,60.8h7.4v7.4h-7.4V60.8z M194.7,60.8h7.4v7.4
		h-7.4V60.8z M202.1,60.8h7.4v7.4h-7.4V60.8z M209.5,60.8h7.4v7.4h-7.4V60.8z M217,60.8h7.4v7.4H217V60.8z M224.4,60.8h7.4v7.4h-7.4
		V60.8z M83.1,68.2h7.4v7.4h-7.4V68.2z M90.5,68.2H98v7.4h-7.4V68.2z M98,68.2h7.4v7.4H98V68.2z M127.7,68.2h7.4v7.4h-7.4V68.2z
		 M135.2,68.2h7.4v7.4h-7.4V68.2z M157.5,68.2h7.4v7.4h-7.4V68.2z M164.9,68.2h7.4v7.4h-7.4V68.2z M16.1,75.6h7.4v7.4h-7.4V75.6z
		 M23.6,75.6H31v7.4h-7.4V75.6z M31,75.6h7.4v7.4H31V75.6z M38.5,75.6h7.4v7.4h-7.4V75.6z M45.9,75.6h7.4v7.4h-7.4V75.6z M60.8,75.6
		h7.4v7.4h-7.4V75.6z M68.2,75.6h7.4v7.4h-7.4V75.6z M75.6,75.6h7.4v7.4h-7.4V75.6z M90.5,75.6H98v7.4h-7.4V75.6z M98,75.6h7.4v7.4
		H98V75.6z M105.4,75.6h7.4v7.4h-7.4V75.6z M112.8,75.6h7.4v7.4h-7.4V75.6z M120.3,75.6h7.4v7.4h-7.4V75.6z M127.7,75.6h7.4v7.4
		h-7.4V75.6z M135.2,75.6h7.4v7.4h-7.4V75.6z M142.6,75.6h7.4v7.4h-7.4V75.6z M157.5,75.6h7.4v7.4h-7.4V75.6z M172.4,75.6h7.4v7.4
		h-7.4V75.6z M187.2,75.6h7.4v7.4h-7.4V75.6z M202.1,75.6h7.4v7.4h-7.4V75.6z M217,75.6h7.4v7.4H217V75.6z M23.6,83.1H31v7.4h-7.4
		V83.1z M31,83.1h7.4v7.4H31V83.1z M38.5,83.1h7.4v7.4h-7.4V83.1z M45.9,83.1h7.4v7.4h-7.4V83.1z M68.2,83.1h7.4v7.4h-7.4V83.1z
		 M98,83.1h7.4v7.4H98V83.1z M105.4,83.1h7.4v7.4h-7.4V83.1z M135.2,83.1h7.4v7.4h-7.4V83.1z M142.6,83.1h7.4v7.4h-7.4V83.1z
		 M150,83.1h7.4v7.4H150V83.1z M157.5,83.1h7.4v7.4h-7.4V83.1z M164.9,83.1h7.4v7.4h-7.4V83.1z M179.8,83.1h7.4v7.4h-7.4V83.1z
		 M187.2,83.1h7.4v7.4h-7.4V83.1z M194.7,83.1h7.4v7.4h-7.4V83.1z M224.4,83.1h7.4v7.4h-7.4V83.1z M45.9,90.5h7.4V98h-7.4V90.5z
		 M53.3,90.5h7.4V98h-7.4V90.5z M60.8,90.5h7.4V98h-7.4V90.5z M68.2,90.5h7.4V98h-7.4V90.5z M75.6,90.5h7.4V98h-7.4V90.5z
		 M83.1,90.5h7.4V98h-7.4V90.5z M90.5,90.5H98V98h-7.4V90.5z M120.3,90.5h7.4V98h-7.4V90.5z M127.7,90.5h7.4V98h-7.4V90.5z
		 M135.2,90.5h7.4V98h-7.4V90.5z M164.9,90.5h7.4V98h-7.4V90.5z M187.2,90.5h7.4V98h-7.4V90.5z M194.7,90.5h7.4V98h-7.4V90.5z
		 M31,98h7.4v7.4H31V98z M38.5,98h7.4v7.4h-7.4V98z M53.3,98h7.4v7.4h-7.4V98z M83.1,98h7.4v7.4h-7.4V98z M120.3,98h7.4v7.4h-7.4V98
		z M127.7,98h7.4v7.4h-7.4V98z M135.2,98h7.4v7.4h-7.4V98z M157.5,98h7.4v7.4h-7.4V98z M164.9,98h7.4v7.4h-7.4V98z M179.8,98h7.4
		v7.4h-7.4V98z M187.2,98h7.4v7.4h-7.4V98z M194.7,98h7.4v7.4h-7.4V98z M217,98h7.4v7.4H217V98z M23.6,105.4H31v7.4h-7.4V105.4z
		 M31,105.4h7.4v7.4H31V105.4z M45.9,105.4h7.4v7.4h-7.4V105.4z M60.8,105.4h7.4v7.4h-7.4V105.4z M68.2,105.4h7.4v7.4h-7.4V105.4z
		 M83.1,105.4h7.4v7.4h-7.4V105.4z M98,105.4h7.4v7.4H98V105.4z M105.4,105.4h7.4v7.4h-7.4V105.4z M112.8,105.4h7.4v7.4h-7.4V105.4z
		 M120.3,105.4h7.4v7.4h-7.4V105.4z M142.6,105.4h7.4v7.4h-7.4V105.4z M150,105.4h7.4v7.4H150V105.4z M202.1,105.4h7.4v7.4h-7.4
		V105.4z M209.5,105.4h7.4v7.4h-7.4V105.4z M16.1,112.8h7.4v7.4h-7.4V112.8z M38.5,112.8h7.4v7.4h-7.4V112.8z M45.9,112.8h7.4v7.4
		h-7.4V112.8z M68.2,112.8h7.4v7.4h-7.4V112.8z M75.6,112.8h7.4v7.4h-7.4V112.8z M83.1,112.8h7.4v7.4h-7.4V112.8z M98,112.8h7.4v7.4
		H98V112.8z M142.6,112.8h7.4v7.4h-7.4V112.8z M150,112.8h7.4v7.4H150V112.8z M157.5,112.8h7.4v7.4h-7.4V112.8z M164.9,112.8h7.4
		v7.4h-7.4V112.8z M179.8,112.8h7.4v7.4h-7.4V112.8z M187.2,112.8h7.4v7.4h-7.4V112.8z M194.7,112.8h7.4v7.4h-7.4V112.8z
		 M209.5,112.8h7.4v7.4h-7.4V112.8z M224.4,112.8h7.4v7.4h-7.4V112.8z M38.5,120.3h7.4v7.4h-7.4V120.3z M60.8,120.3h7.4v7.4h-7.4
		V120.3z M68.2,120.3h7.4v7.4h-7.4V120.3z M83.1,120.3h7.4v7.4h-7.4V120.3z M90.5,120.3H98v7.4h-7.4V120.3z M112.8,120.3h7.4v7.4
		h-7.4V120.3z M120.3,120.3h7.4v7.4h-7.4V120.3z M127.7,120.3h7.4v7.4h-7.4V120.3z M135.2,120.3h7.4v7.4h-7.4V120.3z M142.6,120.3
		h7.4v7.4h-7.4V120.3z M209.5,120.3h7.4v7.4h-7.4V120.3z M16.1,127.7h7.4v7.4h-7.4V127.7z M31,127.7h7.4v7.4H31V127.7z M38.5,127.7
		h7.4v7.4h-7.4V127.7z M45.9,127.7h7.4v7.4h-7.4V127.7z M68.2,127.7h7.4v7.4h-7.4V127.7z M75.6,127.7h7.4v7.4h-7.4V127.7z
		 M83.1,127.7h7.4v7.4h-7.4V127.7z M105.4,127.7h7.4v7.4h-7.4V127.7z M127.7,127.7h7.4v7.4h-7.4V127.7z M135.2,127.7h7.4v7.4h-7.4
		V127.7z M157.5,127.7h7.4v7.4h-7.4V127.7z M164.9,127.7h7.4v7.4h-7.4V127.7z M172.4,127.7h7.4v7.4h-7.4V127.7z M194.7,127.7h7.4
		v7.4h-7.4V127.7z M217,127.7h7.4v7.4H217V127.7z M23.6,135.2H31v7.4h-7.4V135.2z M38.5,135.2h7.4v7.4h-7.4V135.2z M45.9,135.2h7.4
		v7.4h-7.4V135.2z M60.8,135.2h7.4v7.4h-7.4V135.2z M75.6,135.2h7.4v7.4h-7.4V135.2z M83.1,135.2h7.4v7.4h-7.4V135.2z M105.4,135.2
		h7.4v7.4h-7.4V135.2z M112.8,135.2h7.4v7.4h-7.4V135.2z M120.3,135.2h7.4v7.4h-7.4V135.2z M127.7,135.2h7.4v7.4h-7.4V135.2z
		 M142.6,135.2h7.4v7.4h-7.4V135.2z M157.5,135.2h7.4v7.4h-7.4V135.2z M187.2,135.2h7.4v7.4h-7.4V135.2z M209.5,135.2h7.4v7.4h-7.4
		V135.2z M16.1,142.6h7.4v7.4h-7.4V142.6z M23.6,142.6H31v7.4h-7.4V142.6z M38.5,142.6h7.4v7.4h-7.4V142.6z M45.9,142.6h7.4v7.4
		h-7.4V142.6z M68.2,142.6h7.4v7.4h-7.4V142.6z M98,142.6h7.4v7.4H98V142.6z M112.8,142.6h7.4v7.4h-7.4V142.6z M135.2,142.6h7.4v7.4
		h-7.4V142.6z M142.6,142.6h7.4v7.4h-7.4V142.6z M150,142.6h7.4v7.4H150V142.6z M157.5,142.6h7.4v7.4h-7.4V142.6z M164.9,142.6h7.4
		v7.4h-7.4V142.6z M179.8,142.6h7.4v7.4h-7.4V142.6z M187.2,142.6h7.4v7.4h-7.4V142.6z M194.7,142.6h7.4v7.4h-7.4V142.6z
		 M202.1,142.6h7.4v7.4h-7.4V142.6z M209.5,142.6h7.4v7.4h-7.4V142.6z M224.4,142.6h7.4v7.4h-7.4V142.6z M16.1,150h7.4v7.4h-7.4V150
		z M31,150h7.4v7.4H31V150z M53.3,150h7.4v7.4h-7.4V150z M60.8,150h7.4v7.4h-7.4V150z M68.2,150h7.4v7.4h-7.4V150z M75.6,150h7.4
		v7.4h-7.4V150z M90.5,150H98v7.4h-7.4V150z M112.8,150h7.4v7.4h-7.4V150z M120.3,150h7.4v7.4h-7.4V150z M127.7,150h7.4v7.4h-7.4
		V150z M150,150h7.4v7.4H150V150z M164.9,150h7.4v7.4h-7.4V150z M172.4,150h7.4v7.4h-7.4V150z M194.7,150h7.4v7.4h-7.4V150z
		 M202.1,150h7.4v7.4h-7.4V150z M209.5,150h7.4v7.4h-7.4V150z M16.1,157.5h7.4v7.4h-7.4V157.5z M45.9,157.5h7.4v7.4h-7.4V157.5z
		 M53.3,157.5h7.4v7.4h-7.4V157.5z M68.2,157.5h7.4v7.4h-7.4V157.5z M83.1,157.5h7.4v7.4h-7.4V157.5z M120.3,157.5h7.4v7.4h-7.4
		V157.5z M157.5,157.5h7.4v7.4h-7.4V157.5z M164.9,157.5h7.4v7.4h-7.4V157.5z M172.4,157.5h7.4v7.4h-7.4V157.5z M179.8,157.5h7.4
		v7.4h-7.4V157.5z M187.2,157.5h7.4v7.4h-7.4V157.5z M194.7,157.5h7.4v7.4h-7.4V157.5z M217,157.5h7.4v7.4H217V157.5z M16.1,164.9
		h7.4v7.4h-7.4V164.9z M31,164.9h7.4v7.4H31V164.9z M38.5,164.9h7.4v7.4h-7.4V164.9z M53.3,164.9h7.4v7.4h-7.4V164.9z M60.8,164.9
		h7.4v7.4h-7.4V164.9z M75.6,164.9h7.4v7.4h-7.4V164.9z M98,164.9h7.4v7.4H98V164.9z M105.4,164.9h7.4v7.4h-7.4V164.9z M112.8,164.9
		h7.4v7.4h-7.4V164.9z M120.3,164.9h7.4v7.4h-7.4V164.9z M127.7,164.9h7.4v7.4h-7.4V164.9z M135.2,164.9h7.4v7.4h-7.4V164.9z
		 M142.6,164.9h7.4v7.4h-7.4V164.9z M150,164.9h7.4v7.4H150V164.9z M157.5,164.9h7.4v7.4h-7.4V164.9z M164.9,164.9h7.4v7.4h-7.4
		V164.9z M172.4,164.9h7.4v7.4h-7.4V164.9z M179.8,164.9h7.4v7.4h-7.4V164.9z M187.2,164.9h7.4v7.4h-7.4V164.9z M194.7,164.9h7.4
		v7.4h-7.4V164.9z M209.5,164.9h7.4v7.4h-7.4V164.9z M217,164.9h7.4v7.4H217V164.9z M224.4,164.9h7.4v7.4h-7.4V164.9z M75.6,172.4
		h7.4v7.4h-7.4V172.4z M90.5,172.4H98v7.4h-7.4V172.4z M98,172.4h7.4v7.4H98V172.4z M105.4,172.4h7.4v7.4h-7.4V172.4z M120.3,172.4
		h7.4v7.4h-7.4V172.4z M135.2,172.4h7.4v7.4h-7.4V172.4z M142.6,172.4h7.4v7.4h-7.4V172.4z M150,172.4h7.4v7.4H150V172.4z
		 M164.9,172.4h7.4v7.4h-7.4V172.4z M194.7,172.4h7.4v7.4h-7.4V172.4z M202.1,172.4h7.4v7.4h-7.4V172.4z M209.5,172.4h7.4v7.4h-7.4
		V172.4z M217,172.4h7.4v7.4H217V172.4z M224.4,172.4h7.4v7.4h-7.4V172.4z M16.1,179.8h7.4v7.4h-7.4V179.8z M23.6,179.8H31v7.4h-7.4
		V179.8z M31,179.8h7.4v7.4H31V179.8z M38.5,179.8h7.4v7.4h-7.4V179.8z M45.9,179.8h7.4v7.4h-7.4V179.8z M53.3,179.8h7.4v7.4h-7.4
		V179.8z M60.8,179.8h7.4v7.4h-7.4V179.8z M75.6,179.8h7.4v7.4h-7.4V179.8z M112.8,179.8h7.4v7.4h-7.4V179.8z M127.7,179.8h7.4v7.4
		h-7.4V179.8z M135.2,179.8h7.4v7.4h-7.4V179.8z M157.5,179.8h7.4v7.4h-7.4V179.8z M164.9,179.8h7.4v7.4h-7.4V179.8z M179.8,179.8
		h7.4v7.4h-7.4V179.8z M194.7,179.8h7.4v7.4h-7.4V179.8z M202.1,179.8h7.4v7.4h-7.4V179.8z M209.5,179.8h7.4v7.4h-7.4V179.8z
		 M16.1,187.2h7.4v7.4h-7.4V187.2z M60.8,187.2h7.4v7.4h-7.4V187.2z M83.1,187.2h7.4v7.4h-7.4V187.2z M90.5,187.2H98v7.4h-7.4V187.2
		z M105.4,187.2h7.4v7.4h-7.4V187.2z M127.7,187.2h7.4v7.4h-7.4V187.2z M157.5,187.2h7.4v7.4h-7.4V187.2z M164.9,187.2h7.4v7.4h-7.4
		V187.2z M194.7,187.2h7.4v7.4h-7.4V187.2z M202.1,187.2h7.4v7.4h-7.4V187.2z M16.1,194.7h7.4v7.4h-7.4V194.7z M31,194.7h7.4v7.4H31
		V194.7z M38.5,194.7h7.4v7.4h-7.4V194.7z M45.9,194.7h7.4v7.4h-7.4V194.7z M60.8,194.7h7.4v7.4h-7.4V194.7z M75.6,194.7h7.4v7.4
		h-7.4V194.7z M98,194.7h7.4v7.4H98V194.7z M105.4,194.7h7.4v7.4h-7.4V194.7z M112.8,194.7h7.4v7.4h-7.4V194.7z M120.3,194.7h7.4
		v7.4h-7.4V194.7z M127.7,194.7h7.4v7.4h-7.4V194.7z M142.6,194.7h7.4v7.4h-7.4V194.7z M164.9,194.7h7.4v7.4h-7.4V194.7z
		 M172.4,194.7h7.4v7.4h-7.4V194.7z M179.8,194.7h7.4v7.4h-7.4V194.7z M187.2,194.7h7.4v7.4h-7.4V194.7z M194.7,194.7h7.4v7.4h-7.4
		V194.7z M209.5,194.7h7.4v7.4h-7.4V194.7z M16.1,202.1h7.4v7.4h-7.4V202.1z M31,202.1h7.4v7.4H31V202.1z M38.5,202.1h7.4v7.4h-7.4
		V202.1z M45.9,202.1h7.4v7.4h-7.4V202.1z M60.8,202.1h7.4v7.4h-7.4V202.1z M75.6,202.1h7.4v7.4h-7.4V202.1z M83.1,202.1h7.4v7.4
		h-7.4V202.1z M90.5,202.1H98v7.4h-7.4V202.1z M98,202.1h7.4v7.4H98V202.1z M135.2,202.1h7.4v7.4h-7.4V202.1z M224.4,202.1h7.4v7.4
		h-7.4V202.1z M16.1,209.5h7.4v7.4h-7.4V209.5z M31,209.5h7.4v7.4H31V209.5z M38.5,209.5h7.4v7.4h-7.4V209.5z M45.9,209.5h7.4v7.4
		h-7.4V209.5z M60.8,209.5h7.4v7.4h-7.4V209.5z M75.6,209.5h7.4v7.4h-7.4V209.5z M120.3,209.5h7.4v7.4h-7.4V209.5z M127.7,209.5h7.4
		v7.4h-7.4V209.5z M142.6,209.5h7.4v7.4h-7.4V209.5z M150,209.5h7.4v7.4H150V209.5z M157.5,209.5h7.4v7.4h-7.4V209.5z M164.9,209.5
		h7.4v7.4h-7.4V209.5z M172.4,209.5h7.4v7.4h-7.4V209.5z M179.8,209.5h7.4v7.4h-7.4V209.5z M187.2,209.5h7.4v7.4h-7.4V209.5z
		 M194.7,209.5h7.4v7.4h-7.4V209.5z M202.1,209.5h7.4v7.4h-7.4V209.5z M217,209.5h7.4v7.4H217V209.5z M16.1,217h7.4v7.4h-7.4V217z
		 M60.8,217h7.4v7.4h-7.4V217z M75.6,217h7.4v7.4h-7.4V217z M90.5,217H98v7.4h-7.4V217z M120.3,217h7.4v7.4h-7.4V217z M127.7,217
		h7.4v7.4h-7.4V217z M164.9,217h7.4v7.4h-7.4V217z M172.4,217h7.4v7.4h-7.4V217z M202.1,217h7.4v7.4h-7.4V217z M217,217h7.4v7.4H217
		V217z M16.1,224.4h7.4v7.4h-7.4V224.4z M23.6,224.4H31v7.4h-7.4V224.4z M31,224.4h7.4v7.4H31V224.4z M38.5,224.4h7.4v7.4h-7.4
		V224.4z M45.9,224.4h7.4v7.4h-7.4V224.4z M53.3,224.4h7.4v7.4h-7.4V224.4z M60.8,224.4h7.4v7.4h-7.4V224.4z M75.6,224.4h7.4v7.4
		h-7.4V224.4z M83.1,224.4h7.4v7.4h-7.4V224.4z M90.5,224.4H98v7.4h-7.4V224.4z M98,224.4h7.4v7.4H98V224.4z M105.4,224.4h7.4v7.4
		h-7.4V224.4z M112.8,224.4h7.4v7.4h-7.4V224.4z M142.6,224.4h7.4v7.4h-7.4V224.4z M157.5,224.4h7.4v7.4h-7.4V224.4z M187.2,224.4
		h7.4v7.4h-7.4V224.4z M209.5,224.4h7.4v7.4h-7.4V224.4z"/>
</g>
</svg>
