<?xml version="1.0" encoding="utf-8"?>
<!-- Generator: Adobe Illustrator 21.1.0, SVG Export Plug-In . SVG Version: 6.00 Build 0)  -->
<svg version="1.1" id="Layer_1" xmlns="http://www.w3.org/2000/svg" xmlns:xlink="http://www.w3.org/1999/xlink" x="0px" y="0px"
	 viewBox="0 0 248 248" style="enable-background:new 0 0 248 248;" xml:space="preserve">
<style type="text/css">
	.st0{fill:#FFFFFF;}
	.st1{fill:#333333;}
</style>
<title>QR Code</title>
<desc>http://andrewtralongo.com/i-share-therefore-i-am.html</desc>
<rect class="st0" width="248" height="248"/>
<g id="elements">
	<path class="st1" d="M16.1,16.1h52.1v7.4H16.1V16.1z M23.6,16.1H31v7.4h-7.4V16.1z M31,16.1h7.4v7.4H31V16.1z M38.5,16.1h7.4v7.4
		h-7.4V16.1z M45.9,16.1h7.4v7.4h-7.4V16.1z M53.3,16.1h7.4v7.4h-7.4V16.1z M60.8,16.1h7.4v7.4h-7.4C60.8,23.5,60.8,16.1,60.8,16.1z
		 M83.1,16.1h16.6v7.4H83.1V16.1z M90.5,16.1H98v7.4h-7.4L90.5,16.1L90.5,16.1z M98,16.1h7.4v7.4H98V16.1z M135.2,16.1h7.4v7.4h-7.4
		V16.1z M150,16.1h8.6v7.4H150V16.1z M157.5,16.1h7.4v7.4h-7.4V16.1z M164.9,16.1h7.4v7.4h-7.4V16.1z M179.8,16.1h46.3v7.4h-46.3
		V16.1z M187.2,16.1h7.4v7.4h-7.4V16.1z M194.7,16.1h7.4v7.4h-7.4V16.1z M202.1,16.1h7.4v7.4h-7.4V16.1z M209.5,16.1h7.4v7.4h-7.4
		V16.1z M217,16.1h7.4v7.4H217V16.1z M224.4,16.1h7.4V52h-7.4V16.1z M16.1,22.4h7.4v42.2h-7.4V22.4z M60.8,21.3h7.4v46.9h-7.4
		C60.8,68.2,60.8,21.3,60.8,21.3z M75.6,23.6h17.3V31H75.6V23.6z M83.1,23.6h7.4V31h-7.4V23.6z M90.5,21.9H98V31h-7.4L90.5,21.9
		L90.5,21.9z M105.4,23.6h7.4V31h-7.4V23.6z M120.3,23.6h7.4V31h-7.4V23.6z M127.7,23.6h7.4V31h-7.4C127.7,31,127.7,23.6,127.7,23.6
		z M142.6,23.6h7.4V31h-7.4V23.6z M150,21.9h7.4V31H150V21.9z M179.8,23.6h7.4V31h-7.4V23.6z M224.4,23.6h7.4V31h-7.4V23.6z
		 M16.1,31h7.4v7.4h-7.4V31z M31,31h7.4v7.4H31V31z M38.5,31h7.4v7.4h-7.4V31z M45.9,31h7.4v7.4h-7.4V31z M60.8,31h7.4v7.4h-7.4
		C60.8,38.4,60.8,31,60.8,31z M83.1,21.5h7.4v16.9h-7.4V21.5z M105.4,31h7.4v9.9h-7.4V31z M120.3,31h7.4v9.4h-7.4V31z M127.7,31h7.4
		v7.4h-7.4C127.7,38.4,127.7,31,127.7,31z M157.5,31h7.4v9.6h-7.4V31z M164.9,31h7.4v7.4h-7.4V31z M179.8,31h7.4v7.4h-7.4V31z
		 M194.7,31h22.2v11.5h-22.2V31z M202.1,31h7.4v7.4h-7.4V31z M209.5,31h7.4v7.4h-7.4V31z M224.4,31h7.4v7.4h-7.4V31z M16.1,38.5h7.4
		v7.4h-7.4V38.5z M31,38.5h7.4v7.4H31V38.5z M38.5,38.5h7.4v7.4h-7.4V38.5z M45.9,38.5h7.4v7.4h-7.4V38.5z M60.8,38.5h7.4v7.4h-7.4
		C60.8,45.9,60.8,38.5,60.8,38.5z M75.6,38.5H83v7.4h-7.4V38.5z M90.5,38.5H98v7.4h-7.4L90.5,38.5L90.5,38.5z M98,38.5h7.4v7.4H98
		V38.5z M105.4,38.5h7.4v7.4h-7.4V38.5z M112.8,38.5h9.3v7.4h-9.3V38.5z M120.3,38.5h7.4v7.4h-7.4V38.5z M142.6,38.5h7.4v7.4h-7.4
		V38.5z M157.5,38.5h7.4v7.4h-7.4V38.5z M179.8,38.5h7.4v7.4h-7.4V38.5z M194.7,38.5h7.4v7.4h-7.4V38.5z M202.1,38.5h7.4v7.4h-7.4
		V38.5z M209.5,38.5h7.4v7.4h-7.4V38.5z M224.4,38.5h7.4v7.4h-7.4V38.5z M16.1,45.9h7.4v7.4h-7.4V45.9z M31,45.9h7.4v7.4H31V45.9z
		 M38.5,45.9h7.4v7.4h-7.4V45.9z M31,31h22.3v22.3H31V31z M60.8,45.9h7.4v7.4h-7.4C60.8,53.3,60.8,45.9,60.8,45.9z M98,45.9h7.4v7.4
		H98V45.9z M120.3,45.9h7.4v7.4h-7.4V45.9z M135.2,45.9h7.4v7.4h-7.4V45.9z M142.6,45.9h7.4v7.4h-7.4V45.9z M150,45.9h7.4v7.4H150
		V45.9z M155.9,45.9h9v7.4h-9V45.9z M179.8,45.9h7.4v7.4h-7.4V45.9z M194.7,45.9h7.4v7.4h-7.4V45.9z M202.1,45.9h7.4v7.4h-7.4V45.9z
		 M209.5,45.9h7.4v7.4h-7.4V45.9z M224.4,45.9h7.4v7.4h-7.4V45.9z M16.1,53.3h7.4v7.4h-7.4V53.3z M60.8,53.3h7.4v7.4h-7.4
		C60.8,60.7,60.8,53.3,60.8,53.3z M75.6,53.3h17.2v7.4H75.6V53.3z M83.1,53.3h7.4v7.4h-7.4V53.3z M90.5,53.3H98v8.8h-7.4L90.5,53.3
		L90.5,53.3z M105.4,53.3h7.4v8.3h-7.4V53.3z M112.8,53.3h7.4v7.4h-7.4V53.3z M127.7,53.3h7.4v7.4h-7.4
		C127.7,60.7,127.7,53.3,127.7,53.3z M142.6,53.3h7.4v7.4h-7.4V53.3z M164.9,53.3h7.4v9.4h-7.4V53.3z M179.8,53.3h7.4v7.4h-7.4V53.3
		z M224.4,53.3h7.4v9.2h-7.4V53.3z M16.1,60.8h7.4v7.4h-7.4V60.8z M23.6,60.8H31v7.4h-7.4V60.8z M31,60.8h7.4v7.4H31V60.8z
		 M38.5,60.8h7.4v7.4h-7.4V60.8z M45.9,60.8h7.4v7.4h-7.4V60.8z M21.9,60.8h40.8v7.4H21.9V60.8z M60.8,60.8h7.4v7.4h-7.4
		C60.8,68.2,60.8,60.8,60.8,60.8z M75.6,59.3H83v8.9h-7.4V59.3z M90.5,60.8H98v7.4h-7.4L90.5,60.8L90.5,60.8z M105.4,60.8h7.4v7.4
		h-7.4V60.8z M120.3,60.8h7.4v7.4h-7.4V60.8z M135.2,60.8h7.4v7.4h-7.4V60.8z M150,60.8h7.4v7.4H150V60.8z M164.9,60.8h7.4v7.4h-7.4
		V60.8z M179.8,21h7.4v47.2h-7.4V21z M187.2,60.8h7.4v7.4h-7.4V60.8z M194.7,60.8h7.4v7.4h-7.4V60.8z M202.1,60.8h7.4v7.4h-7.4V60.8
		z M209.5,60.8h7.4v7.4h-7.4V60.8z M217,60.8h7.4v7.4H217V60.8z M185.8,60.8h46v7.4h-46V60.8z M83.1,68.2h9.2v7.4h-9.2V68.2z
		 M90.5,68.2H98v7.4h-7.4L90.5,68.2L90.5,68.2z M98,68.2h7.4v7.4H98V68.2z M127.7,68.2h10.9v14.9h-10.9
		C127.7,83.1,127.7,68.2,127.7,68.2z M135.2,68.2h7.4v7.4h-7.4V68.2z M157.5,68.2h7.4v7.4h-7.4V68.2z M164.9,68.2h7.4v7.4h-7.4V68.2
		z M16.1,75.6h34.1V83H16.1V75.6z M23.6,75.6H31V83h-7.4V75.6z M31,75.6h7.4V83H31V75.6z M38.5,75.6h7.4V83h-7.4V75.6z M45.9,75.6
		h7.4V83h-7.4V75.6z M60.8,75.6h7.4V83h-7.4C60.8,83,60.8,75.6,60.8,75.6z M68.2,75.6h7.4v8.5h-7.4V75.6z M75.6,75.6H83V83h-7.4
		V75.6z M90.5,75.6H98V83h-7.4L90.5,75.6L90.5,75.6z M98,75.6h7.4V83H98V75.6z M105.4,75.6h7.4V83h-7.4V75.6z M112.8,75.6h11.1V83
		h-11.1V75.6z M120.3,75.6h7.4V83h-7.4V75.6z M127.7,75.6h7.4V83h-7.4C127.7,83,127.7,75.6,127.7,75.6z M135.2,75.6h7.4V83h-7.4
		V75.6z M142.6,75.6h7.4V83h-7.4V75.6z M157.5,75.6l7.4,0l0,8.8l-7.4,0L157.5,75.6z M172.4,75.6h7.4V83h-7.4V75.6z M187.2,75.6h7.4
		v8.8h-7.4V75.6z M202.1,75.6h7.4V83h-7.4V75.6z M217,75.6h7.4V83H217V75.6z M23.6,83.1H31v7.4h-7.4V83.1z M31,83.1h7.4v7.4H31V83.1
		z M38.5,83.1h7.4v7.4h-7.4V83.1z M23.6,79.5h29.7v11H23.6V79.5z M68.2,83.1h7.4v7.4h-7.4V83.1z M98,80h14.8v10.5H98V80z
		 M105.4,83.1h7.4v7.4h-7.4V83.1z M135.2,77.5H150v13h-14.8V77.5z M142.6,83.1h7.4v7.4h-7.4V83.1z M150,83.1h7.4v7.4H150V83.1z
		 M155.6,83.1h9.3v7.4h-9.3V83.1z M164.9,83.1h7.4v7.4h-7.4V83.1z M179.8,83.1h7.4v7.4h-7.4V83.1z M187.2,83.1h11v22.3h-11V83.1z
		 M194.7,83.1h7.4v7.4h-7.4V83.1z M224.4,83.1h7.4v7.4h-7.4V83.1z M45.9,90.5h7.4V98h-7.4V90.5z M53.3,90.5h9.4V98h-9.4V90.5z
		 M60.8,90.5h7.4V98h-7.4C60.8,98,60.8,90.5,60.8,90.5z M68.2,90.5h7.4V98h-7.4V90.5z M75.6,90.5H92V98H75.6V90.5z M83.1,90.5h7.4
		V98h-7.4V90.5z M90.5,90.5H98V98h-7.4L90.5,90.5L90.5,90.5z M120.3,90.5h7.4V98h-7.4V90.5z M127.7,90.5h14.9v14.9h-14.9
		C127.7,105.4,127.7,90.5,127.7,90.5z M135.2,90.5h7.4V98h-7.4V90.5z M164.9,90.5h7.4V98h-7.4V90.5z M187.2,90.5h7.4V98h-7.4V90.5z
		 M194.7,90.5h7.4V98h-7.4V90.5z M31,98h9.1v7.4H31V98z M38.5,98h7.4v7.4h-7.4V98z M53.3,98h7.4v7.4h-7.4V98z M83.1,98h7.4v7.4h-7.4
		V98z M120.3,98h7.4v7.4h-7.4V98z M127.7,98h7.4v7.4h-7.4C127.7,105.4,127.7,98,127.7,98z M135.2,98h7.4v7.4h-7.4V98z M157.5,98h7.4
		v7.4h-7.4V98z M164.9,98h7.4v7.4h-7.4V98z M179.8,98h7.4v7.4h-7.4V98z M187.2,98h7.4v7.4h-7.4V98z M194.7,98h7.4v7.4h-7.4V98z
		 M217,98h7.4v7.4H217V98z M23.6,105.4H31v7.4h-7.4V105.4z M31,105.4h7.4v7.4H31V105.4z M45.9,105.4h7.4v7.4h-7.4V105.4z
		 M60.8,105.4h7.4v7.4h-7.4C60.8,112.8,60.8,105.4,60.8,105.4z M68.2,105.4h7.4v7.4h-7.4V105.4z M83.1,105.4h7.4v7.4h-7.4V105.4z
		 M98,105.4h7.4v7.4H98V105.4z M105.4,105.4h7.4v7.4h-7.4V105.4z M112.8,105.4h13v7.4h-13V105.4z M120.3,105.4h7.4v7.4h-7.4V105.4z
		 M142.6,105.4h7.4v7.4h-7.4V105.4z M150,105.4h7.4v7.4H150V105.4z M202.1,105.4h7.4v7.4h-7.4V105.4z M209.5,105.4h7.4v7.4h-7.4
		V105.4z M16.1,112.8h7.4v7.4h-7.4V112.8z M38.5,112.8h7.4v24.4h-7.4V112.8z M45.9,112.8h7.4v7.4h-7.4V112.8z M68.2,112.8h7.4v8.7
		h-7.4V112.8z M75.6,112.8h8.5v7.4h-8.5V112.8z M83.1,112.8h7.4v9.6h-7.4V112.8z M98,112.8h7.4v7.4H98V112.8z M142.6,112.8h7.4v7.4
		h-7.4V112.8z M150,112.8h7.4v7.4H150V112.8z M156,112.8h8.9v7.4H156V112.8z M164.9,112.8h7.4v7.4h-7.4V112.8z M179.8,112.8h7.4v7.4
		h-7.4V112.8z M187.2,112.8h7.4v7.4h-7.4V112.8z M193.1,112.8h9v7.4h-9V112.8z M209.5,112.8h7.4v8.9h-7.4V112.8z M224.4,112.8h7.4
		v7.4h-7.4V112.8z M38.5,120.3h7.4v7.4h-7.4V120.3z M60.8,120.3h7.4v7.4h-7.4C60.8,127.7,60.8,120.3,60.8,120.3z M68.2,120.3h7.4
		v7.4h-7.4V120.3z M83.1,120.3h7.4v7.4h-7.4V120.3z M88.7,120.3H98v7.4h-9.2v-7.4H88.7z M112.8,120.3h7.4v7.4h-7.4V120.3z
		 M117.1,120.3l10.6,0l0,7.4l-10.6,0L117.1,120.3z M127.7,120.3h7.4v7.4h-7.4C127.7,127.7,127.7,120.3,127.7,120.3z M129.6,120.3h13
		v14.9h-13V120.3z M142.6,118.8h7.4v8.9h-7.4V118.8z M209.5,120.3h7.4v7.4h-7.4V120.3z M16.1,127.7h7.4v7.4h-7.4V127.7z M31,127.7
		h8.2v7.4H31V127.7z M38.5,127.7h7.4v7.4h-7.4V127.7z M45.9,127.7h7.4v8.9h-7.4V127.7z M68.2,127.7h7.4v7.4h-7.4V127.7z M75.6,127.7
		H83v7.4h-7.4V127.7z M83.1,127.7h7.4v7.4h-7.4V127.7z M105.4,127.7h7.4v8.8h-7.4V127.7z M127.7,127.7h7.4v7.4h-7.4
		C127.7,135.1,127.7,127.7,127.7,127.7z M135.2,127.7h7.4v7.4h-7.4V127.7z M157.5,127.7h7.4v13.8h-7.4V127.7z M164.9,127.7h7.4v7.4
		h-7.4V127.7z M169.9,127.7h9.9v7.4h-9.9V127.7z M194.7,127.7h7.4v7.4h-7.4V127.7z M217,127.7h7.4v7.4H217V127.7z M23.6,135.2H31
		v7.4h-7.4V135.2z M38.5,135.2h7.4v7.4h-7.4V135.2z M45.9,135.2h7.4v7.4h-7.4V135.2z M60.8,135.2h7.4v7.4h-7.4
		C60.8,142.6,60.8,135.2,60.8,135.2z M75.6,127.7h14.9v14.9H75.6V127.7z M83.1,135.2h7.4v7.4h-7.4V135.2z M105.4,135.2h7.4v7.4h-7.4
		V135.2z M112.8,135.2h9.3v7.4h-9.3V135.2z M120.3,135.2h7.4v7.4h-7.4V135.2z M127.7,133h7.4v9.6h-7.4
		C127.7,142.6,127.7,133,127.7,133z M142.6,135.2h7.4v7.4h-7.4V135.2z M157.5,135.2h7.4v7.4h-7.4V135.2z M187.2,135.2h7.4v7.4h-7.4
		V135.2z M209.5,135.2h7.4v7.4h-7.4V135.2z M16.1,142.6h8.4v7.4h-8.4V142.6z M23.6,142.6H31v7.4h-7.4V142.6z M38.5,142.6h7.4v7.4
		h-7.4V142.6z M45.9,142.6h7.4v7.4h-7.4V142.6z M68.2,142.6h7.4v7.4h-7.4V142.6z M98,142.6h7.4v7.4H98V142.6z M112.8,142.6h7.4v7.4
		h-7.4V142.6z M135.2,142.6h7.4v7.4h-7.4V142.6z M142.6,142.6h7.4v7.4h-7.4V142.6z M150,142.6h7.4v7.4H150V142.6z M155.7,142.6h9.2
		v7.4h-9.2V142.6z M164.9,142.6h7.4v7.4h-7.4V142.6z M179.8,142.6h7.4v7.4h-7.4V142.6z M187.2,142.6h13.4v7.4h-13.4V142.6z
		 M194.7,142.6h7.4v7.4h-7.4V142.6z M202.1,142.6h7.4v7.4h-7.4V142.6z M209.5,142.6h7.4v7.4h-7.4V142.6z M224.4,142.6h7.4v7.4h-7.4
		V142.6z M16.1,150h7.4v7.4h-7.4V150z M31,150h7.4v7.4H31V150z M53.3,150h9.4v7.4h-9.4V150z M60.8,150h7.4v7.4h-7.4
		C60.8,157.4,60.8,150,60.8,150z M68.2,150h7.4v7.4h-7.4V150z M75.6,150H83v7.4h-7.4V150z M90.5,150H98v7.4h-7.4L90.5,150L90.5,150z
		 M112.8,150h12.7v7.4h-12.7V150z M120.3,150h7.4v7.4h-7.4V150z M127.7,150h7.4v7.4h-7.4C127.7,157.4,127.7,150,127.7,150z M150,150
		h7.4v7.4H150V150z M164.9,150h7.4v34.7h-7.4V150z M169.4,150h10.4v9.8h-10.4V150z M194.7,150h7.4v9.8h-7.4V150z M202.1,150h7.4v7.4
		h-7.4V150z M209.5,150h7.4v7.4h-7.4V150z M16.1,156.4l7.4,0.1l-0.1,8.4l-7.4-0.1L16.1,156.4z M45.9,157.5h7.4v7.4h-7.4V157.5z
		 M53.3,155.7h7.4v9.2h-7.4V155.7z M68.2,155.3h7.4v9.6h-7.4V155.3z M83.1,157.5h7.4v7.4h-7.4V157.5z M120.3,155.9h7.4v9h-7.4V155.9
		z M157.5,157.5h39.1v14.8h-39.1V157.5z M164.9,157.5h7.4v7.4h-7.4V157.5z M172.4,157.5h7.4v7.4h-7.4V157.5z M179.8,157.5h7.4v7.4
		h-7.4V157.5z M187.2,157.5h7.4v7.4h-7.4V157.5z M194.7,157.5h7.4v7.4h-7.4V157.5z M217,157.5h7.4v10.6H217V157.5z M16.1,164.9h7.4
		v7.4h-7.4V164.9z M31,164.9h9.2v7.4H31V164.9z M38.5,164.9h7.4v7.4h-7.4V164.9z M53.3,164.9h10v7.4h-10V164.9z M60.8,164.9h7.4v7.4
		h-7.4C60.8,172.3,60.8,164.9,60.8,164.9z M75.6,164.9H83v9.6h-7.4V164.9z M98,164.9h7.4v7.4H98V164.9z M105.4,164.9h7.4v7.4h-7.4
		V164.9z M112.8,164.9h26.4v7.4h-26.4V164.9z M120.3,164.9h7.4v7.4h-7.4V164.9z M127.7,164.9h7.4v7.4h-7.4
		C127.7,172.3,127.7,164.9,127.7,164.9z M135.2,164.9h7.4v7.4h-7.4V164.9z M142.6,164.9h7.4v7.4h-7.4V164.9z M135.2,164.9h22.2v14.9
		h-22.2V164.9z M156.5,164.9h9.4v7.4h-9.4V164.9z M164.9,164.9h7.4v7.4h-7.4V164.9z M172.4,164.9h7.4v7.4h-7.4V164.9z M179.8,164.9
		h7.4v7.4h-7.4V164.9z M187.2,164.9h7.4v7.4h-7.4V164.9z M194.7,164.9h7.4v7.4h-7.4V164.9z M209.5,164.9h22.3v14.9h-22.3V164.9z
		 M217,164.9h7.4v7.4H217V164.9z M224.4,164.9h7.4v7.4h-7.4V164.9z M75.6,172.4H83v7.4h-7.4V172.4z M90.5,172.4H98v7.4h-7.4
		L90.5,172.4L90.5,172.4z M98,172.4h7.4v7.4H98V172.4z M98,170.5h14.8v9.3H98V170.5z M120.3,169.6h7.4v10.2h-7.4V169.6z
		 M135.2,172.4h7.4v7.4h-7.4V172.4z M142.6,172.4h7.4v7.4h-7.4V172.4z M150,172.4h7.4v7.4H150V172.4z M164.9,172.4h7.4v7.4h-7.4
		V172.4z M194.7,169.5h7.4v10.3h-7.4V169.5z M202.1,172.4h7.4v7.4h-7.4V172.4z M209.5,172.4h7.4v7.4h-7.4V172.4z M217,172.4h7.4v7.4
		H217V172.4z M224.4,172.4h7.4v7.4h-7.4V172.4z M16.1,179.8h48v7.4h-48V179.8z M23.6,179.8H31v7.4h-7.4V179.8z M31,179.8h7.4v7.4H31
		V179.8z M38.5,179.8h7.4v7.4h-7.4V179.8z M45.9,179.8h7.4v7.4h-7.4V179.8z M53.3,179.8h7.4v7.4h-7.4V179.8z M60.8,179.8h7.4v45.6
		h-7.4C60.8,225.4,60.8,179.8,60.8,179.8z M75.6,179.8H83v7.4h-7.4V179.8z M112.8,179.8h7.4v7.4h-7.4V179.8z M127.7,179.8h7.4v7.4
		h-7.4C127.7,187.2,127.7,179.8,127.7,179.8z M134.2,179.8h8.4v7.4h-8.4V179.8z M157.5,179.8h7.4v7.4h-7.4V179.8z M164.9,179.8h7.4
		v7.4h-7.4V179.8z M179.8,179.8h7.4v7.4h-7.4V179.8z M194.7,179.8h7.4v7.4h-7.4V179.8z M202.1,179.8h7.4v7.4h-7.4V179.8z
		 M209.5,179.8h7.4v7.4h-7.4V179.8z M16.1,187.2h7.4v7.4h-7.4V187.2z M60.8,187.2h7.4v7.4h-7.4C60.8,194.6,60.8,187.2,60.8,187.2z
		 M83.1,187.2h9.8v7.4h-9.8V187.2z M90.5,187.2H98v7.4h-7.4L90.5,187.2L90.5,187.2z M105.4,187.2h7.4v9h-7.4V187.2z M127.7,187.2
		h7.4v10.7h-7.4C127.7,197.9,127.7,187.2,127.7,187.2z M157.5,187.2h7.4v7.4h-7.4V187.2z M164.9,187.2h7.4v9.7h-7.4V187.2z
		 M194.7,187.2h7.4v7.4h-7.4V187.2z M202.1,187.2h7.4v7.4h-7.4V187.2z M16.1,194.7h7.4v7.4h-7.4V194.7z M31,194.7h17.9v22.2H31
		V194.7z M38.5,194.7h7.4v7.4h-7.4V194.7z M45.9,194.7h7.4v7.4h-7.4V194.7z M60.8,194.7h7.4v7.4h-7.4
		C60.8,202.1,60.8,194.7,60.8,194.7z M75.6,194.7H83v7.4h-7.4V194.7z M98,194.7h7.4v7.4H98V194.7z M105.4,194.7h7.4v7.4h-7.4V194.7z
		 M112.8,194.7H131v7.4h-18.2V194.7z M120.3,194.7h7.4v7.4h-7.4V194.7z M127.7,194.7h7.4v7.4h-7.4
		C127.7,202.1,127.7,194.7,127.7,194.7z M142.6,194.7h7.4v7.4h-7.4V194.7z M164.9,194.7h31.3v7.4h-31.3V194.7z M172.4,194.7h7.4v7.4
		h-7.4V194.7z M179.8,194.7h7.4v7.4h-7.4V194.7z M187.2,194.7h7.4v7.4h-7.4V194.7z M194.7,192.8h7.4v9.3h-7.4V192.8z M209.5,194.7
		h7.4v7.4h-7.4V194.7z M16.1,202.1h7.4v7.4h-7.4V202.1z M31,202.1h7.4v7.4H31V202.1z M38.5,202.1h7.4v7.4h-7.4V202.1z M45.9,202.1
		h7.4v7.4h-7.4V202.1z M60.8,202.1h7.4v7.4h-7.4C60.8,209.5,60.8,202.1,60.8,202.1z M75.6,202.1h26.3v7.4H75.6V202.1z M83.1,202.1
		h7.4v7.4h-7.4V202.1z M90.5,202.1H98v7.4h-7.4L90.5,202.1L90.5,202.1z M98,202.1h7.4v7.4H98V202.1z M135.2,202.1h7.4v7.4h-7.4
		V202.1z M224.4,202.1h7.4v7.4h-7.4V202.1z M16.1,209.5h7.4v7.4h-7.4V209.5z M31,209.5h7.4v7.4H31V209.5z M38.5,209.5h7.4v7.4h-7.4
		V209.5z M45.9,209.5h7.4v7.4h-7.4V209.5z M60.8,209.5h7.4v7.4h-7.4C60.8,216.9,60.8,209.5,60.8,209.5z M75.6,209.5H83v7.4h-7.4
		V209.5z M120.3,209.5h7.4v7.4h-7.4V209.5z M120.3,209.5h14.8v14.9h-14.8C120.3,224.4,120.3,209.5,120.3,209.5z M142.6,209.5h7.4
		v7.4h-7.4V209.5z M150,209.5h54.7v7.4H150V209.5z M157.5,209.5h7.4v7.4h-7.4V209.5z M164.9,209.5h7.4v7.4h-7.4V209.5z M172.4,209.5
		h7.4v7.4h-7.4V209.5z M179.8,209.5h7.4v7.4h-7.4V209.5z M187.2,209.5h7.4v7.4h-7.4V209.5z M194.7,209.5h7.4v7.4h-7.4V209.5z
		 M202.1,209.5h7.4v7.4h-7.4V209.5z M217,209.5h7.4v7.4H217V209.5z M16.1,217h7.4v7.4h-7.4V217z M60.8,217h7.4v7.4h-7.4
		C60.8,224.4,60.8,217,60.8,217z M75.6,205.3H83v19.1h-7.4V205.3z M90.5,217H98v7.4h-7.4L90.5,217L90.5,217z M120.3,217h7.4v7.4
		h-7.4V217z M127.7,217h7.4v7.4h-7.4C127.7,224.4,127.7,217,127.7,217z M164.9,214.2h14.9v10.2h-14.9V214.2z M172.4,217h7.4v7.4
		h-7.4V217z M202.1,215.4h7.4v9h-7.4V215.4z M217,213.6h7.4v10.8H217V213.6z M16.1,183.1h7.4v48.7h-7.4V183.1z M23.6,224.4H31v7.4
		h-7.4V224.4z M31,224.4h7.4v7.4H31V224.4z M38.5,224.4h7.4v7.4h-7.4V224.4z M45.9,224.4h7.4v7.4h-7.4V224.4z M53.3,224.4h7.4v7.4
		h-7.4V224.4z M21.6,224.4h46.6v7.4H21.6C21.6,231.8,21.6,224.4,21.6,224.4z M75.6,224.4H83v7.4h-7.4V224.4z M83.1,224.4h7.4v7.4
		h-7.4V224.4z M81.5,224.4H98v7.4H81.7v-7.4H81.5z M98,224.4h7.4v7.4H98V224.4z M105.4,224.4h7.4v7.4h-7.4V224.4z M112.8,224.4h7.4
		v7.4h-7.4V224.4z M142.6,224.4h7.4v7.4h-7.4V224.4z M157.5,224.4h7.4v7.4h-7.4V224.4z M187.2,224.4h7.4v7.4h-7.4V224.4z
		 M209.5,224.4h7.4v7.4h-7.4V224.4z"/>
</g>
</svg>
