<svg id="Layer_1" data-name="Layer 1" xmlns="http://www.w3.org/2000/svg" viewBox="0 0 155.23 155.23"><defs><style>.cls-1{fill:#333;}</style></defs><title>qr</title><path class="cls-1" d="M85.2,96h-5v5.27H75.25V91.13h4.83V86H75.13c0-1.78,0-3.43,0-5.08l-.06.05H85.23v4.92h10V81h5.41V86.1h4.86v5h-4.78v5H120.8l-.05-.05v5.3h5.09v-5.3l-.05.06h5.3v10.35h10v35.47H105.76V137H90.18l.05.06V132l-.05.05h5V121.59h-5l.06.05v-5H85.32v-5H95.2v-5.09H90.25v-5.08l-.06.05h5V91.14H85.15v5Zm40.6,36V121.67H120.7v5h-4.87V132h10v5h10.3V126.75h-5V132Zm-10.1-30.49h-15v15h15Zm20.51,10.05H125.87v4.88H136.2Zm-25.54,15.13h-4.93V132h4.93Z"/><path class="cls-1" d="M29.12,86V76H24v4.87H19v20.43H14.11V55.61H39.51c0,1.59,0,3.24,0,4.89h-5v5.26h5V60.47h5.08c0,1.76,0,3.53,0,5.34h15V60.5h-15V55.58H69.91v4.83H65.07V70.85h5V66H85.13v4.9l.06-.05H75.07V81l.06-.05L70,81c0-1.65,0-3.3,0-5H65.11v5h5v5H59.69V91H65V96.1L65,96H59.65V111.4H54.71V91.09H39.65V76h9.87V71h-15V86H29.06Zm25.5-5h-10v4.93h10c0-1.74,0-3.36,0-5h5V76h-5ZM24.1,60.55h-5V70.8H29v-5H24.1Z"/><path class="cls-1" d="M49.39,142H14.11V106.66H49.39ZM19.07,111.56v25.12H44.43V111.56Z"/><path class="cls-1" d="M49.46,15V50.26H14.13V15ZM19,45.3H44.47V19.94H19Z"/><path class="cls-1" d="M105.84,14.91h35.27V50.24H105.84Zm4.9,30.38h25.41V19.9H110.74Z"/><path class="cls-1" d="M125.86,81V76h10.28V70.91h-4.82V55.59h4.79V65.82h5V80.9h-4.84V86h4.82v9.91h-4.77V91.08h-5V80.92h-5.5Z"/><path class="cls-1" d="M75.14,35.2l-5.11,0,.05.06V30H65v5.3l.05-.06H54.75V30h4.8V24.92H54.76v-5h4.88V15h5.28v9.85H70V20H80V24.8H75.09c0,3.58,0,7,0,10.46Z"/><path class="cls-1" d="M64.93,121.57V137h5v4.92H54.78V116.7h4.79v4.92H65Z"/><path class="cls-1" d="M95.21,50.38q0,5,0,10.07l.05-.06H75.25V45.53H80v9.86h5.1v-10h5.09l-.05-.06v5.09h5.09Z"/><path class="cls-1" d="M75.09,121.66l15.16,0-.06-.05v10.46l.05-.05H85.15v5.09l.05-.06h-5V142H75.25v-9.85h4.83v-5.43H75.15V121.6Z"/><path class="cls-1" d="M85.22,29.92v-10h5v-5h10.28V29.76H95.34V24.94h-5.1v4.93H85.16Z"/><path class="cls-1" d="M105.64,65.9h5V55.6h5V70.95h5.14l-.06-.06q0,5.06,0,10.11l.06-.05H115.7V75.88h-5l.06.06V70.82h-5.06v-5Z"/><path class="cls-1" d="M75.15,121.6l-10.21,0,.06.05c0-5,0-9.92,0-15H80v4.82H75.09c0,3.53,0,6.86,0,10.2Z"/><path class="cls-1" d="M29.06,86V91H34.3v10.29H29.15V96.09H24.2V86h4.92Z"/><path class="cls-1" d="M90.24,45.41q0-2.52,0-5l-.05.06h5.05v-5h5.25V50.38H95.21l.06.05V45.34H90.18Z"/><path class="cls-1" d="M85.16,29.87v5.39h5c0,1.85,0,3.5,0,5.16l.05-.06H75.14c0-1.85,0-3.5,0-5.15l-.05.06h5V29.93h5.12Z"/><path class="cls-1" d="M95.29,65.88q0-2.74,0-5.49l-.05.06h5.36V55.59h5q0,5.15,0,10.3l.05-.06H95.22Z"/><path class="cls-1" d="M70,35.25v15H65q0-7.49,0-15l-.05.06h5.09Z"/><path class="cls-1" d="M125.8,80.92v15.2l.05-.06h-5.09l.05.05V80.95l-.06.05,5.12,0Z"/><path class="cls-1" d="M49.46,96.27v5h-9.8v-5Z"/><path class="cls-1" d="M59.54,40.51v9.74H54.77V40.51Z"/><path class="cls-1" d="M65,96.1h4.94v5.2H65c0-1.73,0-3.5,0-5.26Z"/><path class="cls-1" d="M90.25,101.44H85.2c0-1.88,0-3.63,0-5.39l-.05.06h5v5.37Z"/><path class="cls-1" d="M90.18,137V142h-5c0-1.63,0-3.28,0-4.93l-.05.06h5.09Z"/><path class="cls-1" d="M125.65,60.36h-4.73V55.6h4.73Z"/><path class="cls-1" d="M90.25,70.92v-5h5l-.06-.05v5h-5Z"/><path class="cls-1" d="M120.79,70.95V66h4.87v4.88h-4.92Z"/><path class="cls-1" d="M85.13,70.92h5.12l-.06-.05,0,5.08h-5V70.87Z"/><path class="cls-1" d="M115.6,91h-4.74V86.19h4.74Z"/><path class="cls-1" d="M95.27,81H90.19V75.92h5.07Z"/><path class="cls-1" d="M110.69,75.88v4.94h-4.87V75.94h4.92Z"/><path class="cls-1" d="M110.56,111.44h-4.72v-4.81h4.72Z"/><path class="cls-1" d="M39.37,116.74V131.9H24.19V116.74Z"/><path class="cls-1" d="M24.22,25H39.34V40.17H24.22Z"/><path class="cls-1" d="M115.92,25H131V40.17H115.92Z"/></svg>