<?xml version="1.0" standalone="no"?>
<!DOCTYPE svg PUBLIC "-//W3C//DTD SVG 20010904//EN"
 "http://www.w3.org/TR/2001/REC-SVG-20010904/DTD/svg10.dtd">
<svg version="1.0" xmlns="http://www.w3.org/2000/svg"
 width="500.000000pt" height="500.000000pt" viewBox="0 0 500.000000 500.000000"
 preserveAspectRatio="xMidYMid meet">
<metadata>
Created by potrace 1.11, written by Peter Selinger 2001-2013
</metadata>
<g transform="translate(0.000000,500.000000) scale(0.100000,-0.100000)"
fill="#000000" stroke="none">
<path d="M0 2500 l0 -2500 2500 0 2500 0 0 2500 0 2500 -2500 0 -2500 0 0
-2500z m4800 0 l0 -2300 -2300 0 -2300 0 0 2300 0 2300 2300 0 2300 0 0 -2300z"/>
<path d="M1698 2913 c-69 -142 -125 -259 -124 -260 0 0 30 -4 66 -7 233 -24
391 -115 471 -272 31 -62 34 -75 33 -153 0 -106 -24 -161 -96 -226 -98 -88
-208 -97 -330 -26 -88 51 -129 58 -165 27 -49 -42 -25 -110 53 -150 58 -31
223 -30 315 2 287 99 431 395 314 649 -30 67 -138 176 -215 220 -71 41 -214
88 -277 92 -8 1 5 37 34 96 l47 95 200 2 199 3 38 83 38 82 -238 0 -238 0
-125 -257z"/>
<path d="M2460 3156 c0 -12 10 -16 46 -16 63 0 113 -26 130 -66 11 -27 14
-136 14 -561 0 -296 -4 -542 -9 -561 -17 -57 -58 -82 -137 -82 -32 0 -44 -4
-44 -15 0 -13 38 -15 285 -15 247 0 285 2 285 15 0 11 -11 15 -40 15 -56 0
-115 26 -131 58 -10 20 -14 92 -17 281 l-4 253 59 -8 c32 -5 110 -9 173 -8 93
1 126 5 171 23 150 58 229 175 229 337 0 158 -110 290 -284 341 -39 12 -128
17 -388 20 -305 5 -338 3 -338 -11z m636 -94 c92 -48 146 -141 150 -262 4
-127 -45 -223 -140 -273 -44 -23 -154 -30 -228 -14 l-38 8 0 274 0 275 28 6
c15 3 32 8 37 10 27 10 155 -6 191 -24z"/>
</g>
</svg>
