<?xml version="1.0" standalone="no"?>
<!DOCTYPE svg PUBLIC "-//W3C//DTD SVG 20010904//EN"
 "http://www.w3.org/TR/2001/REC-SVG-20010904/DTD/svg10.dtd">
<svg version="1.0" xmlns="http://www.w3.org/2000/svg"
 width="992.000000pt" height="992.000000pt" viewBox="0 0 992.000000 992.000000"
 preserveAspectRatio="xMidYMid meet">
<metadata>
Created by potrace 1.11, written by Peter Selinger 2001-2013
</metadata>
<g transform="translate(0.000000,992.000000) scale(0.100000,-0.100000)"
fill="#000000" stroke="none">
<path d="M4073 7493 c26 -49 113 -199 117 -203 3 -3 11 -16 18 -30 6 -14 27
-52 47 -85 19 -33 46 -80 60 -105 14 -25 37 -66 52 -91 24 -39 226 -389 302
-522 13 -23 32 -55 42 -72 10 -16 31 -52 47 -80 16 -27 38 -66 50 -87 11 -20
73 -128 138 -240 64 -111 124 -214 132 -228 9 -14 15 -28 14 -32 -1 -5 2 -8 8
-8 5 0 10 -4 10 -9 0 -4 23 -48 52 -97 28 -49 64 -111 80 -139 16 -27 33 -57
38 -65 5 -8 48 -82 95 -165 47 -82 90 -157 95 -165 5 -8 84 -145 176 -305 92
-159 174 -301 183 -315 8 -14 21 -34 27 -45 32 -59 65 -118 88 -154 14 -22 26
-43 26 -46 0 -3 12 -24 27 -48 39 -61 83 -139 89 -159 4 -10 10 -18 15 -18 5
0 9 -4 9 -10 0 -5 14 -33 31 -62 34 -56 56 -95 90 -155 12 -21 24 -42 29 -48
4 -5 24 -41 45 -80 20 -38 44 -77 51 -86 8 -8 14 -18 14 -22 0 -3 29 -56 65
-117 36 -61 65 -114 65 -119 0 -4 5 -12 12 -19 14 -14 72 -114 90 -154 7 -16
16 -28 20 -28 4 0 8 -5 8 -10 0 -6 18 -40 40 -76 22 -36 40 -67 40 -69 0 -2
27 -49 60 -105 33 -56 60 -103 60 -105 0 -2 17 -32 38 -66 22 -35 55 -93 74
-127 19 -35 39 -65 43 -65 5 -1 38 48 73 108 103 176 254 437 271 470 9 17 19
32 24 33 4 2 7 7 7 12 0 4 43 81 95 171 52 89 95 165 95 170 0 4 6 14 13 21
12 13 28 40 64 108 10 19 20 37 23 40 8 8 40 62 58 100 9 19 20 37 23 40 3 3
23 36 45 75 21 38 54 94 72 125 17 30 43 75 57 100 14 25 36 63 49 85 12 22
49 85 81 140 31 55 66 114 76 130 10 17 26 46 35 65 10 19 23 42 29 50 7 8 24
35 38 60 13 25 49 88 79 140 31 52 64 111 74 130 10 19 22 37 27 38 4 2 7 7 7
11 0 5 47 90 105 190 58 99 105 185 105 191 0 5 3 10 8 10 4 0 16 17 27 38 11
20 38 69 61 107 22 39 44 77 48 85 3 8 19 35 34 60 15 25 45 77 66 115 22 39
44 72 48 73 4 2 8 8 8 13 0 6 28 58 63 117 35 59 66 114 70 122 4 8 16 29 27
45 11 17 26 44 34 60 9 17 30 55 48 85 18 31 61 105 96 165 35 61 67 117 72
125 11 17 56 95 131 228 12 20 30 51 40 67 11 17 22 37 26 45 4 8 51 90 105
182 54 92 98 170 98 173 0 3 5 11 10 18 6 7 40 64 76 127 36 63 74 130 86 148
l20 32 -2922 0 c-1607 0 -2919 -3 -2917 -7z m1072 -233 c124 1 232 1 240 1 8
0 116 0 240 0 124 0 232 0 240 0 8 0 116 0 240 0 124 0 232 0 240 0 8 0 116 0
240 0 124 0 232 0 240 0 8 0 116 0 240 0 124 0 233 0 243 0 1145 1 2182 -3
2179 -9 -29 -53 -153 -268 -157 -272 -3 -3 -13 -21 -23 -40 -32 -60 -52 -95
-57 -100 -3 -3 -11 -16 -18 -30 -7 -14 -23 -43 -36 -65 -13 -22 -62 -107 -110
-190 -47 -82 -90 -157 -96 -165 -6 -8 -16 -26 -22 -40 -7 -14 -23 -40 -36 -57
-14 -18 -21 -33 -17 -33 5 0 1 -8 -7 -17 -8 -10 -18 -25 -21 -33 -4 -8 -18
-33 -31 -55 -14 -22 -31 -51 -39 -65 -7 -14 -40 -70 -72 -125 -58 -99 -287
-495 -335 -580 -86 -150 -107 -187 -145 -250 -23 -38 -45 -77 -48 -85 -4 -8
-18 -33 -32 -55 -14 -22 -28 -47 -32 -55 -4 -8 -17 -32 -31 -53 -13 -22 -34
-58 -47 -80 -13 -23 -62 -109 -109 -191 -47 -82 -86 -152 -86 -157 0 -5 -4 -9
-9 -9 -5 0 -11 -8 -14 -17 -6 -17 -17 -38 -85 -153 -49 -82 -48 -80 -87 -147
-20 -34 -36 -66 -36 -70 0 -4 -10 -21 -23 -38 -12 -16 -27 -41 -34 -55 -7 -14
-22 -41 -33 -60 -23 -38 -190 -324 -221 -378 -82 -145 -98 -175 -98 -183 0 -5
-3 -9 -8 -9 -4 0 -18 -21 -32 -47 -13 -27 -27 -50 -30 -53 -3 -3 -10 -14 -16
-25 -38 -69 -77 -138 -108 -189 -20 -33 -36 -66 -36 -73 0 -23 -36 -14 -48 11
-6 13 -60 109 -120 213 -60 103 -119 204 -129 223 -38 66 -176 305 -208 360
-18 30 -44 75 -57 100 -44 78 -250 433 -275 472 -12 21 -23 42 -23 48 0 5 -4
10 -10 10 -5 0 -10 5 -10 11 0 8 -77 147 -126 226 -8 13 -14 25 -14 28 -1 2
-23 41 -50 86 -28 44 -50 82 -50 83 0 2 -30 55 -67 117 -36 63 -76 131 -87
151 -12 21 -54 94 -93 163 -40 69 -73 130 -73 135 0 4 -4 10 -8 12 -5 2 -42
62 -83 133 -41 72 -79 139 -86 150 -7 11 -16 27 -20 35 -4 8 -35 63 -70 122
-35 59 -63 111 -63 117 0 6 -4 11 -9 11 -5 0 -12 8 -15 18 -3 9 -12 26 -19 37
-6 11 -36 63 -66 115 -30 52 -71 123 -92 157 -22 34 -39 64 -39 66 0 3 -45 83
-101 178 -56 96 -111 192 -123 214 -25 44 -76 132 -118 204 -16 25 -33 55 -38
66 -6 11 -16 29 -23 40 -45 76 -107 185 -107 190 0 3 90 5 201 5 110 -1 203 1
206 4 3 3 10 3 14 0 5 -2 110 -4 234 -4z"/>
<path d="M2926 7409 c-9 -13 -16 -27 -16 -30 0 -4 -16 -31 -35 -60 -19 -30
-35 -59 -35 -66 0 -7 -4 -13 -8 -13 -4 0 -13 -12 -20 -27 -6 -16 -24 -48 -40
-73 -16 -25 -41 -70 -57 -100 -16 -30 -34 -62 -41 -70 -6 -8 -26 -42 -44 -75
-18 -33 -38 -67 -44 -75 -6 -8 -21 -33 -33 -55 -11 -22 -29 -54 -40 -72 -39
-67 -189 -328 -208 -362 -11 -20 -34 -58 -50 -86 -42 -70 -47 -78 -79 -137
-16 -29 -36 -64 -46 -78 -9 -14 -20 -32 -24 -40 -3 -8 -17 -33 -30 -55 -156
-269 -252 -435 -265 -460 -9 -16 -19 -31 -23 -33 -5 -2 -8 -7 -8 -11 0 -5 -23
-48 -51 -97 -29 -49 -63 -109 -77 -134 -13 -25 -31 -52 -38 -61 -8 -8 -14 -18
-14 -21 0 -3 -29 -56 -65 -118 -36 -62 -65 -114 -65 -116 0 -2 -13 -22 -29
-46 -16 -24 -32 -53 -35 -65 -4 -13 -12 -23 -17 -23 -6 0 -8 -4 -4 -9 3 -5 1
-12 -4 -15 -5 -3 -35 -52 -67 -108 -32 -57 -67 -116 -76 -133 -10 -16 -24 -41
-30 -55 -7 -14 -15 -27 -18 -30 -3 -3 -16 -25 -29 -50 -13 -25 -30 -52 -37
-61 -8 -8 -14 -21 -14 -27 0 -6 -6 -17 -13 -24 -7 -7 -18 -24 -25 -38 -6 -14
-16 -32 -22 -40 -5 -8 -33 -55 -61 -105 -81 -142 -82 -143 -157 -274 -40 -68
-72 -127 -72 -131 0 -5 -3 -10 -7 -12 -5 -1 -17 -20 -28 -40 -11 -20 -44 -79
-74 -130 -30 -51 -63 -109 -74 -128 -36 -64 -129 -225 -146 -250 -8 -14 -14
-28 -13 -32 1 -5 -3 -8 -8 -8 -6 0 -10 -4 -10 -9 0 -5 -38 -74 -85 -155 -47
-80 -85 -150 -85 -156 0 -5 -3 -10 -7 -10 -5 0 -13 -10 -19 -23 -6 -12 -43
-78 -84 -147 -40 -69 -74 -128 -77 -132 -2 -5 1301 -8 2897 -8 l2900 0 -25 48
c-14 26 -36 65 -50 87 -14 22 -28 47 -32 55 -4 8 -28 51 -54 95 -26 44 -56 96
-66 115 -11 19 -50 86 -87 149 -36 62 -66 115 -66 117 0 2 -26 47 -59 101 -54
91 -189 325 -241 418 -12 22 -26 45 -30 50 -4 6 -19 30 -32 55 -14 25 -48 85
-77 134 -28 49 -51 90 -51 92 0 2 -18 32 -40 66 -22 35 -40 69 -40 76 0 6 -4
12 -10 12 -5 0 -10 4 -10 9 0 5 -17 38 -38 72 -21 35 -52 89 -69 119 -33 60
-97 172 -119 207 -8 13 -14 26 -13 29 0 4 -3 10 -8 13 -4 3 -13 15 -19 26 -10
18 -83 144 -181 313 -23 41 -38 67 -72 127 -13 22 -57 97 -97 167 -41 69 -74
129 -74 133 0 3 -5 11 -10 18 -6 7 -65 107 -131 222 -67 116 -142 246 -168
290 -26 44 -50 87 -54 95 -4 8 -15 29 -26 45 -10 17 -28 47 -40 68 -11 20 -29
52 -40 70 -10 17 -65 113 -122 212 -57 99 -106 182 -109 185 -6 6 -49 84 -65
117 -5 13 -13 23 -17 23 -5 0 -8 5 -8 11 0 5 -31 63 -70 128 -38 65 -70 123
-70 129 0 6 -3 12 -8 14 -4 2 -59 93 -122 203 -63 110 -128 224 -146 253 l-32
54 -16 -23z"/>
</g>
</svg>
