<svg id="Layer_1" data-name="Layer 1" xmlns="http://www.w3.org/2000/svg" viewBox="0 0 155.23 155.23"><defs><style>.cls-1{fill:#333;}</style></defs><title>140characters</title><path class="cls-1" d="M105.85,15.51l-56.52-.06a11.29,11.29,0,0,0-11.25,11.3V128.48a11.29,11.29,0,0,0,11.25,11.3h56.52a11.34,11.34,0,0,0,11.3-11.3V26.75A11.29,11.29,0,0,0,105.85,15.51Zm2.21,104.29H47.12V35.44h60.93Z"/><path class="cls-1" d="M89.25,62.56a.93.93,0,0,1-.46-.12,23.41,23.41,0,0,0-22.28,0,1,1,0,0,1-1-1.76,25.45,25.45,0,0,1,24.16,0,1,1,0,0,1-.46,1.9ZM60.63,73.06a1,1,0,0,1-.58-.18,1,1,0,0,1-.24-1.4,20.68,20.68,0,0,1,7.5-6.54,23.09,23.09,0,0,1,20.62,0,20.76,20.76,0,0,1,7.5,6.5,1,1,0,0,1-1.64,1.16A18.78,18.78,0,0,0,87,66.7a21.07,21.07,0,0,0-18.8,0,19,19,0,0,0-6.8,5.92A.87.87,0,0,1,60.63,73.06ZM73.13,97.2a.94.94,0,0,1-.7-.3,20.22,20.22,0,0,1-4-5.28,17.75,17.75,0,0,1-2.1-8.68,11.33,11.33,0,0,1,22.64,0,1,1,0,0,1-2,0,9.34,9.34,0,0,0-18.64,0,15.67,15.67,0,0,0,1.86,7.7,18.93,18.93,0,0,0,3.7,4.84,1,1,0,0,1,0,1.42A1.1,1.1,0,0,1,73.13,97.2Zm14.34-3.7a10.77,10.77,0,0,1-6.2-1.78,10.65,10.65,0,0,1-4.76-8.78,1,1,0,0,1,2,0,8.6,8.6,0,0,0,3.88,7.12,8.77,8.77,0,0,0,5.08,1.42,13.22,13.22,0,0,0,2.08-.2,1,1,0,0,1,.34,2A13.66,13.66,0,0,1,87.47,93.5Zm-4,4.12a1.17,1.17,0,0,1-.26,0,15.6,15.6,0,0,1-7.44-4.2,14.59,14.59,0,0,1-4.34-10.44,6.17,6.17,0,0,1,12.32,0,4.17,4.17,0,0,0,8.32,0c0-7.54-6.5-13.66-14.5-13.66a14.6,14.6,0,0,0-13.22,8.06,12.87,12.87,0,0,0-1.18,5.6,19.87,19.87,0,0,0,1.34,7.22,1,1,0,0,1-.58,1.28,1,1,0,0,1-1.28-.58,22.28,22.28,0,0,1-1.46-7.92,15,15,0,0,1,1.36-6.48,16.6,16.6,0,0,1,15-9.2c9.1,0,16.5,7,16.5,15.66a6.17,6.17,0,0,1-12.32,0,4.17,4.17,0,0,0-8.32,0,12.59,12.59,0,0,0,3.74,9,13.6,13.6,0,0,0,6.54,3.7,1,1,0,0,1,.7,1.22A1,1,0,0,1,83.45,97.62Z"/></svg>