<?xml version="1.0" encoding="utf-8"?>
<!-- Generator: Adobe Illustrator 22.0.0, SVG Export Plug-In . SVG Version: 6.00 Build 0)  -->
<svg version="1.1" id="Layer_1" xmlns="http://www.w3.org/2000/svg" xmlns:xlink="http://www.w3.org/1999/xlink" x="0px" y="0px"
	 viewBox="0 0 823.5 1258.5" style="enable-background:new 0 0 823.5 1258.5;" xml:space="preserve">
<style type="text/css">
	.st0{fill:#F3EA00;}
	.st1{fill:url(#SVGID_1_);}
</style>
<title>Artboard 2</title>
<path class="st0" d="M-1062.1,4445.4c-775.8-775.8-333.3-1122.9-292.2-2280.9c32.7-921.6-747.6-1669.8-1669.8-1669.8
	s-1702.4,748.2-1669.8,1669.8c41,1158,483.5,1505.1-292.2,2280.9C-5269.7,4729-6100,5536.2-6100,6844.3
	c0,1698.8,1377.1,3075.9,3075.9,3075.9S51.8,8543.1,51.8,6844.3C51.8,5536.2-778.5,4729-1062.1,4445.4z M-3024.1,8028.9
	c-699.1,0-1265.9-566.8-1265.9-1265.9S-3723.2,5497-3024.1,5497s1265.9,566.8,1265.9,1265.9S-2324.9,8028.9-3024.1,8028.9
	L-3024.1,8028.9z M-1758.1,6762.9H-4290l1265.9,1265.9V5497"/>
<radialGradient id="SVGID_1_" cx="419.4197" cy="416.8431" r="792.32" gradientTransform="matrix(1 0 0 -1 0 1255.7506)" gradientUnits="userSpaceOnUse">
	<stop  offset="0" style="stop-color:#9ACA3C"/>
	<stop  offset="1" style="stop-color:#7DC242"/>
</radialGradient>
<path class="st1" d="M674,526.5C570.5,423,629.6,376.8,635,222.4C639.4,99.5,535.3-0.3,412.4-0.3s-227,99.8-222.6,222.6
	c5.5,154.4,64.5,200.7-39,304.1C113,564.3,2.3,671.9,2.3,846.3c0,226.5,183.6,410.1,410.1,410.1s410.1-183.6,410.1-410.1
	C822.5,671.9,711.8,564.3,674,526.5z M412.4,1004.2c-93.2,0-168.8-75.6-168.8-168.8s75.6-168.8,168.8-168.8
	c93.2,0,168.8,75.6,168.8,168.8c0,0,0,0,0,0C581.2,928.7,505.6,1004.2,412.4,1004.2z"/>
</svg>
