<svg version="1.1" id="Layer_1" xmlns="http://www.w3.org/2000/svg" xmlns:xlink="http://www.w3.org/1999/xlink" x="0px" y="0px"
	 viewBox="0 0 7412.4 5181.8" style="enable-background:new 0 0 7412.4 5181.8;" xml:space="preserve">
<style type="text/css">
	.st0{fill:#603913;}
	.st1{fill:#F3EA00;}
</style>
<rect x="0" y="2.1" class="st0" width="7412.4" height="5179.7"/>
<g>
	<path class="st1" d="M3968.1,2282.9c-103.4-103.4-44.4-149.7-39-304.1c4.4-122.9-99.7-222.6-222.6-222.6s-227,99.8-222.6,222.6
		c5.5,154.4,64.5,200.7-39,304.1c-37.8,37.8-148.5,145.4-148.5,319.9c0,226.5,183.6,410.1,410.1,410.1s410.1-183.6,410.1-410.1
		C4116.6,2428.4,4005.9,2320.7,3968.1,2282.9z M3706.5,2760.7c-93.2,0-168.8-75.6-168.8-168.8c0-93.2,75.6-168.8,168.8-168.8
		s168.8,75.6,168.8,168.8C3875.2,2685.1,3799.7,2760.7,3706.5,2760.7z M3875.2,2591.9 M3537.7,2591.9 M3706.5,2760.7 M3706.5,2423.1
		"/>
	<path class="st1" d="M5668.5,303.6c-775.8-775.8-333.3-1122.9-292.2-2280.9c32.7-921.6-747.6-1669.8-1669.8-1669.8
		S2004-2898.9,2036.7-1977.3c41,1158,483.6,1505.1-292.2,2280.9C1460.8,587.2,630.5,1394.5,630.5,2702.5
		c0,1698.8,1377.1,3075.9,3075.9,3075.9s3075.9-1377.1,3075.9-3075.9C6782.4,1394.5,5952.1,587.2,5668.5,303.6z M3706.5,3887.1
		c-699.2,0-1265.9-566.8-1265.9-1265.9c0-699.1,566.8-1265.9,1265.9-1265.9S4972.4,1922,4972.4,2621.1
		C4972.4,3320.3,4405.6,3887.1,3706.5,3887.1z M4972.4,2621.1 M2440.5,2621.1 M3706.5,3887.1 M3706.5,1355.2"/>
	<path class="st1" d="M3726.1,2568.7c-7.8-7.8-3.3-11.2-2.9-22.8c0.3-9.2-7.5-16.7-16.7-16.7s-17,7.5-16.7,16.7
		c0.4,11.6,4.8,15.1-2.9,22.8c-2.8,2.8-11.1,10.9-11.1,24c0,17,13.8,30.8,30.8,30.8s30.8-13.8,30.8-30.8
		C3737.2,2579.6,3728.9,2571.6,3726.1,2568.7z M3706.5,2604.6c-7,0-12.7-5.7-12.7-12.7c0-7,5.7-12.7,12.7-12.7s12.7,5.7,12.7,12.7
		C3719.1,2598.9,3713.4,2604.6,3706.5,2604.6z M3719.1,2591.9 M3693.8,2591.9 M3706.5,2604.6 M3706.5,2579.3"/>
	<path class="st1" d="M3707.7,2590.2c-0.6-0.6-0.2-0.8-0.2-1.7c0-0.7-0.6-1.3-1.3-1.3s-1.3,0.6-1.3,1.3c0,0.9,0.4,1.1-0.2,1.7
		c-0.2,0.2-0.8,0.8-0.8,1.8c0,1.3,1,2.3,2.3,2.3c1.3,0,2.3-1,2.3-2.3C3708.5,2591,3707.9,2590.4,3707.7,2590.2z M3706.2,2592.9
		c-0.5,0-0.9-0.4-0.9-0.9c0-0.5,0.4-0.9,0.9-0.9s0.9,0.4,0.9,0.9C3707.2,2592.4,3706.7,2592.9,3706.2,2592.9z M3707.2,2591.9
		 M3705.3,2591.9 M3706.2,2592.9 M3706.2,2591"/>
</g>
</svg>
