<svg id="Layer_1" data-name="Layer 1" xmlns="http://www.w3.org/2000/svg" viewBox="0 0 155.23 155.23"><defs><style>.cls-1{fill:#333;}</style></defs><title>aloneTogether</title><path class="cls-1" d="M77.62,97.1a41.94,41.94,0,1,1,41.94-41.94A42,42,0,0,1,77.62,97.1Zm0-73.88a31.94,31.94,0,1,0,31.94,31.94A32,32,0,0,0,77.62,23.22Z"/><path class="cls-1" d="M77.62,111.3A56.21,56.21,0,0,1,21.47,55.16a5,5,0,1,1,10,0,46.14,46.14,0,1,0,92.29,0,5,5,0,1,1,10,0A56.21,56.21,0,0,1,77.62,111.3Z"/><path class="cls-1" d="M77.62,142a5,5,0,0,1-5-5V106.3a5,5,0,1,1,10,0V137A5,5,0,0,1,77.62,142Z"/><path class="cls-1" d="M80.44,50.57a2.5,2.5,0,0,1-1.77-4.27L89.53,35.44A2.5,2.5,0,0,1,93.07,39L82.21,49.84A2.49,2.49,0,0,1,80.44,50.57Z"/><path class="cls-1" d="M82.12,60.12a2.5,2.5,0,0,1-1.77-4.27L91.21,45a2.5,2.5,0,0,1,3.54,3.54L83.88,59.39A2.49,2.49,0,0,1,82.12,60.12Z"/><path class="cls-1" d="M93,142H62.26a5,5,0,0,1,0-10H93a5,5,0,0,1,0,10Z"/></svg>