<?xml version="1.0" standalone="no"?>
<!DOCTYPE svg PUBLIC "-//W3C//DTD SVG 20010904//EN"
 "http://www.w3.org/TR/2001/REC-SVG-20010904/DTD/svg10.dtd">
<svg version="1.0" xmlns="http://www.w3.org/2000/svg"
 width="858.000000pt" height="858.000000pt" viewBox="0 0 858.000000 858.000000"
 preserveAspectRatio="xMidYMid meet">
<metadata>
Created by potrace 1.11, written by Peter Selinger 2001-2013
</metadata>
<g transform="translate(0.000000,858.000000) scale(0.100000,-0.100000)"
fill="#000000" stroke="none">
<path d="M0 4290 l0 -4290 4290 0 4290 0 0 910 0 910 -1342 -1 c-739 0 -2398
-6 -3688 -13 -1290 -8 -2347 -11 -2350 -9 -4 4 -20 4955 -16 4960 4 4 5141 29
5146 25 3 -2 7 -1101 8 -2443 l4 -2439 1119 0 1119 0 0 3340 0 3340 -4290 0
-4290 0 0 -4290z"/>
<path d="M3615 6689 c-610 -3 -1388 -7 -1727 -8 l-618 -1 0 -1507 c0 -830 3
-1910 7 -2402 l6 -894 1396 6 c768 4 1888 10 2489 14 l1092 6 0 1206 c0 663
-3 1743 -7 2399 l-6 1192 -761 -2 c-419 -1 -1260 -5 -1871 -9z m1751 -1596
c-28 -54 -927 -1608 -934 -1615 -6 -5 -938 1596 -950 1632 -2 7 331 10 947 10
l952 0 -15 -27z m-1785 -812 c255 -443 466 -808 467 -813 2 -4 -425 -8 -948
-8 -584 0 -950 4 -948 9 2 5 215 376 473 825 349 604 473 811 481 803 6 -7
220 -374 475 -816z"/>
<path d="M3632 5022 c11 -28 792 -1372 797 -1372 5 0 441 752 774 1332 l27 48
-801 0 c-440 0 -799 -4 -797 -8z"/>
</g>
</svg>
